ffmpeg started on 2025-06-19 at 10:27:13
Report written to "D:\Convert\FFMetrics\reports\psnr_report-6.txt"
Log level: 32
Command line:
ffmpeg -hide_banner -nostdin -i "G:\\\xc0\xed\xe8\xec\xe5\\[\xd2\xee\xef-4]\\RErideD - \xc4\xe5\xf0\xf0\xe8\xe4\xe0, \xef\xee\xea\xee\xf0\xe8\xe2\xf8\xe8\xe9 \xe2\xf0\xe5\xec\xff\\RErideD_Koku_Koe_no_Derrida_[06]_[AniLibria_TV]_[WEBRip_720p]_HEVC.mkv" -i "G:\\\xc0\xed\xe8\xec\xe5\\[\xd2\xee\xef-4]\\RErideD - \xc4\xe5\xf0\xf0\xe8\xe4\xe0, \xef\xee\xea\xee\xf0\xe8\xe2\xf8\xe8\xe9 \xe2\xf0\xe5\xec\xff\\RErideD_Koku_Koe_no_Derrida_[06]_[AniLibria_TV]_[WEBRip_720p].mkv" -lavfi "[0:v]settb=AVTB,setpts=PTS-STARTPTS,format=pix_fmts=yuv420p10,fps=24000/1001,scale=1280:720:flags=bicubic[main];[1:v]settb=AVTB,setpts=PTS-STARTPTS,format=pix_fmts=yuv420p,fps=24000/1001,scale=1280:720:flags=bicubic[ref];[main][ref]psnr=eof_action=endall:stats_file='D\\:/Convert/FFMetrics/logs/psnr_logfile-6.txt'" -f null -
Input #0, matroska,webm, from 'G:\Аниме\[Топ-4]\RErideD - Деррида, покоривший время\RErideD_Koku_Koe_no_Derrida_[06]_[AniLibria_TV]_[WEBRip_720p]_HEVC.mkv':
  Metadata:
    ENCODER         : Lavf61.7.100
  Duration: 00:23:40.04, start: -0.021000, bitrate: 641 kb/s
  Stream #0:0(jpn): Video: hevc (Main 10), yuv420p10le(tv, bt709, progressive), 1280x720 [SAR 1:1 DAR 16:9], 23.98 fps, 23.98 tbr, 1k tbn (default)
      Metadata:
        ENCODER         : Lavc61.19.100 libx265
        BPS             : 443108
        DURATION        : 00:23:39.960708333
        NUMBER_OF_FRAMES: 34045
        NUMBER_OF_BYTES : 78649550
        _STATISTICS_WRITING_APP: mkvpropedit v66.0.0 ('Josie') 64-bit
        _STATISTICS_WRITING_DATE_UTC: 2025-06-17 15:30:27
        _STATISTICS_TAGS: BPS DURATION NUMBER_OF_FRAMES NUMBER_OF_BYTES
  Stream #0:1(rus): Audio: aac (LC), 48000 Hz, stereo, fltp (default) (forced)
      Metadata:
        title           : AniLibria.TV
        ENCODER         : Lavc61.19.100 aac
        BPS             : 194516
        DURATION        : 00:23:39.988000000
        NUMBER_OF_FRAMES: 66563
        NUMBER_OF_BYTES : 34526459
        _STATISTICS_WRITING_APP: mkvpropedit v66.0.0 ('Josie') 64-bit
        _STATISTICS_WRITING_DATE_UTC: 2025-06-17 15:30:27
        _STATISTICS_TAGS: BPS DURATION NUMBER_OF_FRAMES NUMBER_OF_BYTES
  Stream #0:2(rus): Subtitle: ass (ssa) (default) (forced)
      Metadata:
        title           : Надписи
        BPS             : 7
        DURATION        : 00:21:50.990000000
        NUMBER_OF_FRAMES: 11
        NUMBER_OF_BYTES : 1284
        _STATISTICS_WRITING_APP: mkvpropedit v66.0.0 ('Josie') 64-bit
        _STATISTICS_WRITING_DATE_UTC: 2025-06-17 15:30:27
        _STATISTICS_TAGS: BPS DURATION NUMBER_OF_FRAMES NUMBER_OF_BYTES
  Stream #0:3(rus): Subtitle: ass (ssa)
      Metadata:
        title           : Полные субтитры
        BPS             : 118
        DURATION        : 00:22:07.960000000
        NUMBER_OF_FRAMES: 285
        NUMBER_OF_BYTES : 19647
        _STATISTICS_WRITING_APP: mkvpropedit v66.0.0 ('Josie') 64-bit
        _STATISTICS_WRITING_DATE_UTC: 2025-06-17 15:30:27
        _STATISTICS_TAGS: BPS DURATION NUMBER_OF_FRAMES NUMBER_OF_BYTES
Input #1, matroska,webm, from 'G:\Аниме\[Топ-4]\RErideD - Деррида, покоривший время\RErideD_Koku_Koe_no_Derrida_[06]_[AniLibria_TV]_[WEBRip_720p].mkv':
  Metadata:
    encoder         : libebml v1.4.2 + libmatroska v1.6.4
    creation_time   : 2024-12-15T11:01:42.000000Z
  Duration: 00:23:40.05, start: 0.000000, bitrate: 1770 kb/s
  Stream #1:0(jpn): Video: h264 (High), yuv420p(progressive), 1280x720 [SAR 1:1 DAR 16:9], 23.98 fps, 23.98 tbr, 1k tbn (default)
      Metadata:
        BPS             : 1569947
        DURATION        : 00:23:39.962000000
        NUMBER_OF_FRAMES: 34045
        NUMBER_OF_BYTES : 278658309
        _STATISTICS_WRITING_APP: mkvmerge v66.0.0 ('Josie') 64-bit
        _STATISTICS_WRITING_DATE_UTC: 2024-12-15 11:01:42
        _STATISTICS_TAGS: BPS DURATION NUMBER_OF_FRAMES NUMBER_OF_BYTES
  Stream #1:1(rus): Audio: aac (LC), 48000 Hz, stereo, fltp (default) (forced)
      Metadata:
        title           : AniLibria.TV
        BPS             : 195626
        DURATION        : 00:23:39.989000000
        NUMBER_OF_FRAMES: 66562
        NUMBER_OF_BYTES : 34723356
        _STATISTICS_WRITING_APP: mkvmerge v66.0.0 ('Josie') 64-bit
        _STATISTICS_WRITING_DATE_UTC: 2024-12-15 11:01:42
        _STATISTICS_TAGS: BPS DURATION NUMBER_OF_FRAMES NUMBER_OF_BYTES
  Stream #1:2(rus): Subtitle: ass (ssa) (default) (forced)
      Metadata:
        title           : Надписи
        BPS             : 7
        DURATION        : 00:21:50.990000000
        NUMBER_OF_FRAMES: 11
        NUMBER_OF_BYTES : 1284
        _STATISTICS_WRITING_APP: mkvmerge v66.0.0 ('Josie') 64-bit
        _STATISTICS_WRITING_DATE_UTC: 2024-12-15 11:01:42
        _STATISTICS_TAGS: BPS DURATION NUMBER_OF_FRAMES NUMBER_OF_BYTES
  Stream #1:3(rus): Subtitle: ass (ssa)
      Metadata:
        title           : Полные субтитры
        BPS             : 118
        DURATION        : 00:22:07.960000000
        NUMBER_OF_FRAMES: 285
        NUMBER_OF_BYTES : 19647
        _STATISTICS_WRITING_APP: mkvmerge v66.0.0 ('Josie') 64-bit
        _STATISTICS_WRITING_DATE_UTC: 2024-12-15 11:01:42
        _STATISTICS_TAGS: BPS DURATION NUMBER_OF_FRAMES NUMBER_OF_BYTES
  Stream #1:4: Attachment: ttf
      Metadata:
        filename        : OpenSans-Semibold.ttf
        mimetype        : application/x-truetype-font
  Stream #1:5: Attachment: ttf
      Metadata:
        filename        : v_MightyZeo2.0_v1.07.ttf
        mimetype        : application/x-truetype-font
  Stream #1:6: Attachment: ttf
      Metadata:
        filename        : OpenSans-Semibold.ttf
        mimetype        : application/x-truetype-font
Stream mapping:
  Stream #0:0 (hevc) -> settb:default
  Stream #1:0 (h264) -> settb:default
  psnr:default -> Stream #0:0 (wrapped_avframe)
  Stream #0:1 -> #0:1 (aac (native) -> pcm_s16le (native))
[swscaler @ 000002d9b0a53900] No accelerated colorspace conversion found from yuv420p to bgr48le.
[swscaler @ 000002d9ae7de180] No accelerated colorspace conversion found from yuv420p to bgr48le.
[swscaler @ 000002d9ae80dc00] No accelerated colorspace conversion found from yuv420p to bgr48le.
[swscaler @ 000002d9b0d83a40] No accelerated colorspace conversion found from yuv420p to bgr48le.
[swscaler @ 000002d9b0e5c640] No accelerated colorspace conversion found from yuv420p to bgr48le.
[swscaler @ 000002d9b0f00040] No accelerated colorspace conversion found from yuv420p to bgr48le.
[swscaler @ 000002d9b0f5b040] No accelerated colorspace conversion found from yuv420p to bgr48le.
[swscaler @ 000002d9b0fc8040] No accelerated colorspace conversion found from yuv420p to bgr48le.
[swscaler @ 000002d9b1023bc0] No accelerated colorspace conversion found from yuv420p to bgr48le.
[swscaler @ 000002d9b106d4c0] No accelerated colorspace conversion found from yuv420p to bgr48le.
[swscaler @ 000002d9b1087480] No accelerated colorspace conversion found from yuv420p to bgr48le.
[swscaler @ 000002d9b4161900] No accelerated colorspace conversion found from yuv420p to bgr48le.
[swscaler @ 000002d9b41bd040] No accelerated colorspace conversion found from yuv420p to bgr48le.
[swscaler @ 000002d9b4249040] No accelerated colorspace conversion found from yuv420p to bgr48le.
[swscaler @ 000002d9b42c5040] No accelerated colorspace conversion found from yuv420p to bgr48le.
[swscaler @ 000002d9b4320040] No accelerated colorspace conversion found from yuv420p to bgr48le.
Output #0, null, to 'pipe:':
  Metadata:
    encoder         : Lavf61.7.100
  Stream #0:0: Video: wrapped_avframe, yuv420p10le(tv, bt709, progressive), 1280x720 [SAR 1:1 DAR 16:9], q=2-31, 200 kb/s, 23.98 fps, 23.98 tbn
      Metadata:
        encoder         : Lavc61.19.100 wrapped_avframe
  Stream #0:1(rus): Audio: pcm_s16le, 48000 Hz, stereo, s16, 1536 kb/s (default) (forced)
      Metadata:
        title           : AniLibria.TV
        _STATISTICS_TAGS: BPS DURATION NUMBER_OF_FRAMES NUMBER_OF_BYTES
        BPS             : 194516
        DURATION        : 00:23:39.988000000
        NUMBER_OF_FRAMES: 66563
        NUMBER_OF_BYTES : 34526459
        _STATISTICS_WRITING_APP: mkvpropedit v66.0.0 ('Josie') 64-bit
        _STATISTICS_WRITING_DATE_UTC: 2025-06-17 15:30:27
        encoder         : Lavc61.19.100 pcm_s16le
frame=   86 fps=0.0 q=-0.0 size=N/A time=00:00:03.58 bitrate=N/A speed= 6.9x    frame=  181 fps=174 q=-0.0 size=N/A time=00:00:07.54 bitrate=N/A speed=7.27x    frame=  276 fps=178 q=-0.0 size=N/A time=00:00:11.51 bitrate=N/A speed=7.44x    frame=  379 fps=183 q=-0.0 size=N/A time=00:00:15.80 bitrate=N/A speed=7.63x    frame=  478 fps=185 q=-0.0 size=N/A time=00:00:19.93 bitrate=N/A speed=7.73x    frame=  572 fps=185 q=-0.0 size=N/A time=00:00:23.85 bitrate=N/A speed=7.72x    frame=  656 fps=182 q=-0.0 size=N/A time=00:00:27.36 bitrate=N/A speed=7.57x    frame=  762 fps=185 q=-0.0 size=N/A time=00:00:31.78 bitrate=N/A speed=7.71x    frame=  856 fps=185 q=-0.0 size=N/A time=00:00:35.70 bitrate=N/A speed= 7.7x    frame=  946 fps=183 q=-0.0 size=N/A time=00:00:39.45 bitrate=N/A speed=7.64x    frame= 1036 fps=183 q=-0.0 size=N/A time=00:00:43.20 bitrate=N/A speed=7.62x    frame= 1120 fps=181 q=-0.0 size=N/A time=00:00:46.71 bitrate=N/A speed=7.55x    frame= 1216 fps=181 q=-0.0 size=N/A time=00:00:50.71 bitrate=N/A speed=7.56x    frame= 1315 fps=182 q=-0.0 size=N/A time=00:00:54.84 bitrate=N/A speed= 7.6x    frame= 1414 fps=183 q=-0.0 size=N/A time=00:00:58.97 bitrate=N/A speed=7.62x    frame= 1513 fps=183 q=-0.0 size=N/A time=00:01:03.10 bitrate=N/A speed=7.64x    frame= 1603 fps=183 q=-0.0 size=N/A time=00:01:06.85 bitrate=N/A speed=7.62x    frame= 1702 fps=183 q=-0.0 size=N/A time=00:01:10.98 bitrate=N/A speed=7.64x    frame= 1790 fps=183 q=-0.0 size=N/A time=00:01:14.65 bitrate=N/A speed=7.62x    frame= 1893 fps=184 q=-0.0 size=N/A time=00:01:18.95 bitrate=N/A speed=7.66x    frame= 1994 fps=184 q=-0.0 size=N/A time=00:01:23.16 bitrate=N/A speed=7.68x    frame= 2093 fps=184 q=-0.0 size=N/A time=00:01:27.29 bitrate=N/A speed=7.69x    frame= 2186 fps=184 q=-0.0 size=N/A time=00:01:31.17 bitrate=N/A speed=7.69x    frame= 2282 fps=184 q=-0.0 size=N/A time=00:01:35.17 bitrate=N/A speed=7.69x    frame= 2386 fps=185 q=-0.0 size=N/A time=00:01:39.51 bitrate=N/A speed=7.72x    frame= 2477 fps=185 q=-0.0 size=N/A time=00:01:43.31 bitrate=N/A speed= 7.7x    frame= 2572 fps=185 q=-0.0 size=N/A time=00:01:47.27 bitrate=N/A speed=7.71x    frame= 2670 fps=185 q=-0.0 size=N/A time=00:01:51.36 bitrate=N/A speed=7.71x    frame= 2769 fps=185 q=-0.0 size=N/A time=00:01:55.49 bitrate=N/A speed=7.72x    frame= 2860 fps=185 q=-0.0 size=N/A time=00:01:59.28 bitrate=N/A speed=7.71x    frame= 2967 fps=186 q=-0.0 size=N/A time=00:02:03.74 bitrate=N/A speed=7.74x    frame= 3071 fps=186 q=-0.0 size=N/A time=00:02:08.08 bitrate=N/A speed=7.76x    frame= 3175 fps=187 q=-0.0 size=N/A time=00:02:12.42 bitrate=N/A speed=7.78x    frame= 3275 fps=187 q=-0.0 size=N/A time=00:02:16.59 bitrate=N/A speed=7.79x    frame= 3377 fps=187 q=-0.0 size=N/A time=00:02:20.84 bitrate=N/A speed= 7.8x    frame= 3469 fps=187 q=-0.0 size=N/A time=00:02:24.68 bitrate=N/A speed=7.79x    frame= 3576 fps=187 q=-0.0 size=N/A time=00:02:29.14 bitrate=N/A speed=7.82x    frame= 3674 fps=188 q=-0.0 size=N/A time=00:02:33.23 bitrate=N/A speed=7.82x    frame= 3780 fps=188 q=-0.0 size=N/A time=00:02:37.65 bitrate=N/A speed=7.84x    frame= 3879 fps=188 q=-0.0 size=N/A time=00:02:41.78 bitrate=N/A speed=7.84x    frame= 3980 fps=188 q=-0.0 size=N/A time=00:02:45.99 bitrate=N/A speed=7.85x    frame= 4087 fps=189 q=-0.0 size=N/A time=00:02:50.46 bitrate=N/A speed=7.87x    frame= 4181 fps=189 q=-0.0 size=N/A time=00:02:54.38 bitrate=N/A speed=7.86x    frame= 4287 fps=189 q=-0.0 size=N/A time=00:02:58.80 bitrate=N/A speed=7.88x    frame= 4387 fps=189 q=-0.0 size=N/A time=00:03:02.97 bitrate=N/A speed=7.89x    frame= 4493 fps=189 q=-0.0 size=N/A time=00:03:07.39 bitrate=N/A speed= 7.9x    frame= 4594 fps=190 q=-0.0 size=N/A time=00:03:11.60 bitrate=N/A speed=7.91x    frame= 4690 fps=189 q=-0.0 size=N/A time=00:03:15.61 bitrate=N/A speed= 7.9x    frame= 4800 fps=190 q=-0.0 size=N/A time=00:03:20.20 bitrate=N/A speed=7.92x    frame= 4904 fps=190 q=-0.0 size=N/A time=00:03:24.53 bitrate=N/A speed=7.93x    frame= 5007 fps=190 q=-0.0 size=N/A time=00:03:28.83 bitrate=N/A speed=7.94x    frame= 5109 fps=191 q=-0.0 size=N/A time=00:03:33.08 bitrate=N/A speed=7.95x    frame= 5204 fps=190 q=-0.0 size=N/A time=00:03:37.05 bitrate=N/A speed=7.94x    frame= 5307 fps=191 q=-0.0 size=N/A time=00:03:41.34 bitrate=N/A speed=7.95x    frame= 5411 fps=191 q=-0.0 size=N/A time=00:03:45.68 bitrate=N/A speed=7.96x    frame= 5517 fps=191 q=-0.0 size=N/A time=00:03:50.10 bitrate=N/A speed=7.97x    frame= 5619 fps=191 q=-0.0 size=N/A time=00:03:54.35 bitrate=N/A speed=7.97x    frame= 5713 fps=191 q=-0.0 size=N/A time=00:03:58.27 bitrate=N/A speed=7.97x    frame= 5818 fps=191 q=-0.0 size=N/A time=00:04:02.65 bitrate=N/A speed=7.97x    frame= 5919 fps=191 q=-0.0 size=N/A time=00:04:06.87 bitrate=N/A speed=7.98x    frame= 6023 fps=192 q=-0.0 size=N/A time=00:04:11.20 bitrate=N/A speed=7.99x    frame= 6129 fps=192 q=-0.0 size=N/A time=00:04:15.63 bitrate=N/A speed=7.99x    frame= 6231 fps=192 q=-0.0 size=N/A time=00:04:19.88 bitrate=N/A speed=   8x    frame= 6334 fps=192 q=-0.0 size=N/A time=00:04:24.18 bitrate=N/A speed=8.01x    frame= 6439 fps=192 q=-0.0 size=N/A time=00:04:28.55 bitrate=N/A speed=8.01x    frame= 6538 fps=192 q=-0.0 size=N/A time=00:04:32.68 bitrate=N/A speed=8.01x    frame= 6643 fps=192 q=-0.0 size=N/A time=00:04:37.06 bitrate=N/A speed=8.02x    frame= 6744 fps=192 q=-0.0 size=N/A time=00:04:41.28 bitrate=N/A speed=8.02x    frame= 6847 fps=192 q=-0.0 size=N/A time=00:04:45.57 bitrate=N/A speed=8.03x    frame= 6944 fps=192 q=-0.0 size=N/A time=00:04:49.62 bitrate=N/A speed=8.03x    frame= 7047 fps=192 q=-0.0 size=N/A time=00:04:53.91 bitrate=N/A speed=8.03x    frame= 7151 fps=193 q=-0.0 size=N/A time=00:04:58.25 bitrate=N/A speed=8.03x    frame= 7248 fps=192 q=-0.0 size=N/A time=00:05:02.30 bitrate=N/A speed=8.03x    frame= 7353 fps=193 q=-0.0 size=N/A time=00:05:06.68 bitrate=N/A speed=8.03x    frame= 7449 fps=193 q=-0.0 size=N/A time=00:05:10.68 bitrate=N/A speed=8.03x    frame= 7539 fps=192 q=-0.0 size=N/A time=00:05:14.43 bitrate=N/A speed=8.02x    frame= 7636 fps=192 q=-0.0 size=N/A time=00:05:18.48 bitrate=N/A speed=8.02x    frame= 7730 fps=192 q=-0.0 size=N/A time=00:05:22.40 bitrate=N/A speed=8.01x    frame= 7837 fps=192 q=-0.0 size=N/A time=00:05:26.86 bitrate=N/A speed=8.02x    frame= 7939 fps=192 q=-0.0 size=N/A time=00:05:31.12 bitrate=N/A speed=8.02x    frame= 8025 fps=192 q=-0.0 size=N/A time=00:05:34.70 bitrate=N/A speed=8.01x    frame= 8107 fps=192 q=-0.0 size=N/A time=00:05:38.12 bitrate=N/A speed=7.99x    frame= 8204 fps=192 q=-0.0 size=N/A time=00:05:42.17 bitrate=N/A speed=7.99x    frame= 8307 fps=192 q=-0.0 size=N/A time=00:05:46.47 bitrate=N/A speed=   8x    frame= 8400 fps=192 q=-0.0 size=N/A time=00:05:50.35 bitrate=N/A speed=7.99x    frame= 8499 fps=192 q=-0.0 size=N/A time=00:05:54.47 bitrate=N/A speed=7.99x    frame= 8609 fps=192 q=-0.0 size=N/A time=00:05:59.06 bitrate=N/A speed=   8x    frame= 8707 fps=192 q=-0.0 size=N/A time=00:06:03.15 bitrate=N/A speed=   8x    frame= 8792 fps=192 q=-0.0 size=N/A time=00:06:06.69 bitrate=N/A speed=7.99x    frame= 8895 fps=192 q=-0.0 size=N/A time=00:06:10.99 bitrate=N/A speed=7.99x    frame= 8990 fps=192 q=-0.0 size=N/A time=00:06:14.95 bitrate=N/A speed=7.99x    frame= 9084 fps=191 q=-0.0 size=N/A time=00:06:18.87 bitrate=N/A speed=7.98x    frame= 9181 fps=191 q=-0.0 size=N/A time=00:06:22.92 bitrate=N/A speed=7.98x    frame= 9275 fps=191 q=-0.0 size=N/A time=00:06:26.84 bitrate=N/A speed=7.98x    frame= 9359 fps=191 q=-0.0 size=N/A time=00:06:30.34 bitrate=N/A speed=7.97x    frame= 9445 fps=191 q=-0.0 size=N/A time=00:06:33.93 bitrate=N/A speed=7.95x    frame= 9540 fps=191 q=-0.0 size=N/A time=00:06:37.89 bitrate=N/A speed=7.95x    frame= 9639 fps=191 q=-0.0 size=N/A time=00:06:42.02 bitrate=N/A speed=7.95x    frame= 9733 fps=191 q=-0.0 size=N/A time=00:06:45.94 bitrate=N/A speed=7.95x    frame= 9827 fps=191 q=-0.0 size=N/A time=00:06:49.86 bitrate=N/A speed=7.95x    frame= 9916 fps=190 q=-0.0 size=N/A time=00:06:53.57 bitrate=N/A speed=7.94x    frame=10016 fps=190 q=-0.0 size=N/A time=00:06:57.75 bitrate=N/A speed=7.94x    frame=10105 fps=190 q=-0.0 size=N/A time=00:07:01.46 bitrate=N/A speed=7.93x    frame=10209 fps=190 q=-0.0 size=N/A time=00:07:05.80 bitrate=N/A speed=7.94x    frame=10305 fps=190 q=-0.0 size=N/A time=00:07:09.80 bitrate=N/A speed=7.94x    frame=10402 fps=190 q=-0.0 size=N/A time=00:07:13.85 bitrate=N/A speed=7.94x    frame=10505 fps=190 q=-0.0 size=N/A time=00:07:18.14 bitrate=N/A speed=7.94x    frame=10600 fps=190 q=-0.0 size=N/A time=00:07:22.10 bitrate=N/A speed=7.94x    frame=10701 fps=190 q=-0.0 size=N/A time=00:07:26.36 bitrate=N/A speed=7.94x    frame=10794 fps=190 q=-0.0 size=N/A time=00:07:30.19 bitrate=N/A speed=7.94x    frame=10887 fps=190 q=-0.0 size=N/A time=00:07:34.07 bitrate=N/A speed=7.93x    frame=10986 fps=190 q=-0.0 size=N/A time=00:07:38.20 bitrate=N/A speed=7.93x    frame=11080 fps=190 q=-0.0 size=N/A time=00:07:42.12 bitrate=N/A speed=7.93x    frame=11183 fps=190 q=-0.0 size=N/A time=00:07:46.42 bitrate=N/A speed=7.93x    frame=11281 fps=190 q=-0.0 size=N/A time=00:07:50.51 bitrate=N/A speed=7.93x    frame=11377 fps=190 q=-0.0 size=N/A time=00:07:54.51 bitrate=N/A speed=7.93x    frame=11459 fps=190 q=-0.0 size=N/A time=00:07:57.93 bitrate=N/A speed=7.92x    frame=11572 fps=190 q=-0.0 size=N/A time=00:08:02.64 bitrate=N/A speed=7.93x    frame=11661 fps=190 q=-0.0 size=N/A time=00:08:06.36 bitrate=N/A speed=7.92x    frame=11758 fps=190 q=-0.0 size=N/A time=00:08:10.40 bitrate=N/A speed=7.92x    frame=11856 fps=190 q=-0.0 size=N/A time=00:08:14.49 bitrate=N/A speed=7.92x    frame=11955 fps=190 q=-0.0 size=N/A time=00:08:18.62 bitrate=N/A speed=7.92x    frame=12055 fps=190 q=-0.0 size=N/A time=00:08:22.79 bitrate=N/A speed=7.93x    frame=12156 fps=190 q=-0.0 size=N/A time=00:08:27.00 bitrate=N/A speed=7.93x    frame=12256 fps=190 q=-0.0 size=N/A time=00:08:31.17 bitrate=N/A speed=7.93x    frame=12358 fps=190 q=-0.0 size=N/A time=00:08:35.43 bitrate=N/A speed=7.93x    frame=12451 fps=190 q=-0.0 size=N/A time=00:08:39.31 bitrate=N/A speed=7.93x    frame=12545 fps=190 q=-0.0 size=N/A time=00:08:43.23 bitrate=N/A speed=7.93x    frame=12638 fps=190 q=-0.0 size=N/A time=00:08:47.10 bitrate=N/A speed=7.92x    frame=12732 fps=190 q=-0.0 size=N/A time=00:08:51.03 bitrate=N/A speed=7.92x    frame=12824 fps=190 q=-0.0 size=N/A time=00:08:54.86 bitrate=N/A speed=7.92x    frame=12920 fps=190 q=-0.0 size=N/A time=00:08:58.87 bitrate=N/A speed=7.91x    frame=13012 fps=190 q=-0.0 size=N/A time=00:09:02.70 bitrate=N/A speed=7.91x    frame=13111 fps=190 q=-0.0 size=N/A time=00:09:06.83 bitrate=N/A speed=7.91x    frame=13202 fps=190 q=-0.0 size=N/A time=00:09:10.63 bitrate=N/A speed=7.91x    frame=13307 fps=190 q=-0.0 size=N/A time=00:09:15.01 bitrate=N/A speed=7.91x    frame=13398 fps=190 q=-0.0 size=N/A time=00:09:18.80 bitrate=N/A speed=7.91x    frame=13502 fps=190 q=-0.0 size=N/A time=00:09:23.14 bitrate=N/A speed=7.91x    frame=13599 fps=190 q=-0.0 size=N/A time=00:09:27.19 bitrate=N/A speed=7.91x    frame=13694 fps=190 q=-0.0 size=N/A time=00:09:31.15 bitrate=N/A speed=7.91x    frame=13793 fps=190 q=-0.0 size=N/A time=00:09:35.28 bitrate=N/A speed=7.91x    frame=13889 fps=190 q=-0.0 size=N/A time=00:09:39.28 bitrate=N/A speed=7.91x    frame=13989 fps=190 q=-0.0 size=N/A time=00:09:43.45 bitrate=N/A speed=7.91x    frame=14081 fps=190 q=-0.0 size=N/A time=00:09:47.29 bitrate=N/A speed=7.91x    frame=14179 fps=190 q=-0.0 size=N/A time=00:09:51.38 bitrate=N/A speed=7.91x    frame=14267 fps=189 q=-0.0 size=N/A time=00:09:55.05 bitrate=N/A speed= 7.9x    frame=14370 fps=190 q=-0.0 size=N/A time=00:09:59.34 bitrate=N/A speed= 7.9x    frame=14456 fps=189 q=-0.0 size=N/A time=00:10:02.93 bitrate=N/A speed= 7.9x    frame=14556 fps=189 q=-0.0 size=N/A time=00:10:07.10 bitrate=N/A speed= 7.9x    frame=14652 fps=189 q=-0.0 size=N/A time=00:10:11.11 bitrate=N/A speed= 7.9x    frame=14744 fps=189 q=-0.0 size=N/A time=00:10:14.94 bitrate=N/A speed= 7.9x    frame=14846 fps=189 q=-0.0 size=N/A time=00:10:19.20 bitrate=N/A speed= 7.9x    frame=14944 fps=189 q=-0.0 size=N/A time=00:10:23.28 bitrate=N/A speed= 7.9x    frame=15038 fps=189 q=-0.0 size=N/A time=00:10:27.20 bitrate=N/A speed= 7.9x    frame=15130 fps=189 q=-0.0 size=N/A time=00:10:31.04 bitrate=N/A speed=7.89x    frame=15235 fps=189 q=-0.0 size=N/A time=00:10:35.42 bitrate=N/A speed= 7.9x    frame=15334 fps=189 q=-0.0 size=N/A time=00:10:39.55 bitrate=N/A speed= 7.9x    frame=15434 fps=189 q=-0.0 size=N/A time=00:10:43.72 bitrate=N/A speed= 7.9x    frame=15530 fps=189 q=-0.0 size=N/A time=00:10:47.73 bitrate=N/A speed= 7.9x    frame=15628 fps=189 q=-0.0 size=N/A time=00:10:51.81 bitrate=N/A speed= 7.9x    frame=15733 fps=189 q=-0.0 size=N/A time=00:10:56.19 bitrate=N/A speed= 7.9x    frame=15831 fps=189 q=-0.0 size=N/A time=00:11:00.28 bitrate=N/A speed= 7.9x    frame=15920 fps=189 q=-0.0 size=N/A time=00:11:03.99 bitrate=N/A speed= 7.9x    frame=16027 fps=190 q=-0.0 size=N/A time=00:11:08.45 bitrate=N/A speed= 7.9x    frame=16123 fps=189 q=-0.0 size=N/A time=00:11:12.46 bitrate=N/A speed= 7.9x    frame=16230 fps=190 q=-0.0 size=N/A time=00:11:16.92 bitrate=N/A speed=7.91x    frame=16330 fps=190 q=-0.0 size=N/A time=00:11:21.09 bitrate=N/A speed=7.91x    frame=16433 fps=190 q=-0.0 size=N/A time=00:11:25.39 bitrate=N/A speed=7.91x    frame=16531 fps=190 q=-0.0 size=N/A time=00:11:29.48 bitrate=N/A speed=7.91x    frame=16630 fps=190 q=-0.0 size=N/A time=00:11:33.60 bitrate=N/A speed=7.91x    frame=16727 fps=190 q=-0.0 size=N/A time=00:11:37.65 bitrate=N/A speed=7.91x    frame=16837 fps=190 q=-0.0 size=N/A time=00:11:42.24 bitrate=N/A speed=7.92x    frame=16936 fps=190 q=-0.0 size=N/A time=00:11:46.37 bitrate=N/A speed=7.92x    frame=17027 fps=190 q=-0.0 size=N/A time=00:11:50.16 bitrate=N/A speed=7.91x    frame=17140 fps=190 q=-0.0 size=N/A time=00:11:54.88 bitrate=N/A speed=7.92x    frame=17227 fps=190 q=-0.0 size=N/A time=00:11:58.50 bitrate=N/A speed=7.92x    frame=17347 fps=190 q=-0.0 size=N/A time=00:12:03.51 bitrate=N/A speed=7.93x    frame=17444 fps=190 q=-0.0 size=N/A time=00:12:07.56 bitrate=N/A speed=7.93x    frame=17540 fps=190 q=-0.0 size=N/A time=00:12:11.56 bitrate=N/A speed=7.92x    frame=17648 fps=190 q=-0.0 size=N/A time=00:12:16.06 bitrate=N/A speed=7.93x    frame=17751 fps=190 q=-0.0 size=N/A time=00:12:20.36 bitrate=N/A speed=7.93x    frame=17850 fps=190 q=-0.0 size=N/A time=00:12:24.49 bitrate=N/A speed=7.93x    frame=17949 fps=190 q=-0.0 size=N/A time=00:12:28.62 bitrate=N/A speed=7.93x    frame=18044 fps=190 q=-0.0 size=N/A time=00:12:32.58 bitrate=N/A speed=7.93x    frame=18144 fps=190 q=-0.0 size=N/A time=00:12:36.75 bitrate=N/A speed=7.93x    frame=18241 fps=190 q=-0.0 size=N/A time=00:12:40.80 bitrate=N/A speed=7.93x    frame=18329 fps=190 q=-0.0 size=N/A time=00:12:44.47 bitrate=N/A speed=7.93x    frame=18422 fps=190 q=-0.0 size=N/A time=00:12:48.35 bitrate=N/A speed=7.92x    frame=18517 fps=190 q=-0.0 size=N/A time=00:12:52.31 bitrate=N/A speed=7.92x    frame=18615 fps=190 q=-0.0 size=N/A time=00:12:56.40 bitrate=N/A speed=7.92x    frame=18716 fps=190 q=-0.0 size=N/A time=00:13:00.61 bitrate=N/A speed=7.92x    frame=18818 fps=190 q=-0.0 size=N/A time=00:13:04.86 bitrate=N/A speed=7.93x    frame=18918 fps=190 q=-0.0 size=N/A time=00:13:09.03 bitrate=N/A speed=7.93x    frame=19014 fps=190 q=-0.0 size=N/A time=00:13:13.04 bitrate=N/A speed=7.92x    frame=19110 fps=190 q=-0.0 size=N/A time=00:13:17.04 bitrate=N/A speed=7.92x    frame=19203 fps=190 q=-0.0 size=N/A time=00:13:20.92 bitrate=N/A speed=7.92x    frame=19297 fps=190 q=-0.0 size=N/A time=00:13:24.84 bitrate=N/A speed=7.92x    frame=19384 fps=190 q=-0.0 size=N/A time=00:13:28.47 bitrate=N/A speed=7.92x    frame=19482 fps=190 q=-0.0 size=N/A time=00:13:32.56 bitrate=N/A speed=7.92x    frame=19578 fps=190 q=-0.0 size=N/A time=00:13:36.56 bitrate=N/A speed=7.92x    frame=19670 fps=190 q=-0.0 size=N/A time=00:13:40.40 bitrate=N/A speed=7.91x    frame=19762 fps=190 q=-0.0 size=N/A time=00:13:44.24 bitrate=N/A speed=7.91x    frame=19849 fps=190 q=-0.0 size=N/A time=00:13:47.86 bitrate=N/A speed=7.91x    frame=19950 fps=190 q=-0.0 size=N/A time=00:13:52.08 bitrate=N/A speed=7.91x    frame=20045 fps=190 q=-0.0 size=N/A time=00:13:56.04 bitrate=N/A speed=7.91x    frame=20149 fps=190 q=-0.0 size=N/A time=00:14:00.38 bitrate=N/A speed=7.91x    frame=20246 fps=190 q=-0.0 size=N/A time=00:14:04.42 bitrate=N/A speed=7.91x    frame=20345 fps=190 q=-0.0 size=N/A time=00:14:08.55 bitrate=N/A speed=7.91x    frame=20452 fps=190 q=-0.0 size=N/A time=00:14:13.01 bitrate=N/A speed=7.91x    frame=20550 fps=190 q=-0.0 size=N/A time=00:14:17.10 bitrate=N/A speed=7.91x    frame=20651 fps=190 q=-0.0 size=N/A time=00:14:21.31 bitrate=N/A speed=7.91x    frame=20753 fps=190 q=-0.0 size=N/A time=00:14:25.57 bitrate=N/A speed=7.92x    frame=20857 fps=190 q=-0.0 size=N/A time=00:14:29.91 bitrate=N/A speed=7.92x    frame=20958 fps=190 q=-0.0 size=N/A time=00:14:34.12 bitrate=N/A speed=7.92x    frame=21059 fps=190 q=-0.0 size=N/A time=00:14:38.33 bitrate=N/A speed=7.92x    frame=21158 fps=190 q=-0.0 size=N/A time=00:14:42.46 bitrate=N/A speed=7.92x    frame=21251 fps=190 q=-0.0 size=N/A time=00:14:46.34 bitrate=N/A speed=7.92x    frame=21353 fps=190 q=-0.0 size=N/A time=00:14:50.59 bitrate=N/A speed=7.92x    frame=21452 fps=190 q=-0.0 size=N/A time=00:14:54.72 bitrate=N/A speed=7.92x    frame=21543 fps=190 q=-0.0 size=N/A time=00:14:58.56 bitrate=N/A speed=7.92x    frame=21635 fps=190 q=-0.0 size=N/A time=00:15:02.35 bitrate=N/A speed=7.92x    frame=21734 fps=190 q=-0.0 size=N/A time=00:15:06.48 bitrate=N/A speed=7.92x    frame=21829 fps=190 q=-0.0 size=N/A time=00:15:10.45 bitrate=N/A speed=7.92x    frame=21929 fps=190 q=-0.0 size=N/A time=00:15:14.62 bitrate=N/A speed=7.92x    frame=22028 fps=190 q=-0.0 size=N/A time=00:15:18.75 bitrate=N/A speed=7.92x    frame=22112 fps=190 q=-0.0 size=N/A time=00:15:22.25 bitrate=N/A speed=7.91x    frame=22227 fps=190 q=-0.0 size=N/A time=00:15:27.05 bitrate=N/A speed=7.92x    frame=22322 fps=190 q=-0.0 size=N/A time=00:15:31.01 bitrate=N/A speed=7.92x    frame=22418 fps=190 q=-0.0 size=N/A time=00:15:35.01 bitrate=N/A speed=7.92x    frame=22522 fps=190 q=-0.0 size=N/A time=00:15:39.35 bitrate=N/A speed=7.92x    frame=22618 fps=190 q=-0.0 size=N/A time=00:15:43.35 bitrate=N/A speed=7.92x    frame=22718 fps=190 q=-0.0 size=N/A time=00:15:47.52 bitrate=N/A speed=7.92x    frame=22822 fps=190 q=-0.0 size=N/A time=00:15:51.86 bitrate=N/A speed=7.92x    frame=22920 fps=190 q=-0.0 size=N/A time=00:15:55.95 bitrate=N/A speed=7.92x    frame=23014 fps=190 q=-0.0 size=N/A time=00:15:59.87 bitrate=N/A speed=7.92x    frame=23114 fps=190 q=-0.0 size=N/A time=00:16:04.04 bitrate=N/A speed=7.92x    frame=23210 fps=190 q=-0.0 size=N/A time=00:16:08.05 bitrate=N/A speed=7.92x    frame=23315 fps=190 q=-0.0 size=N/A time=00:16:12.42 bitrate=N/A speed=7.92x    frame=23415 fps=190 q=-0.0 size=N/A time=00:16:16.60 bitrate=N/A speed=7.92x    frame=23513 fps=190 q=-0.0 size=N/A time=00:16:20.68 bitrate=N/A speed=7.92x    frame=23612 fps=190 q=-0.0 size=N/A time=00:16:24.81 bitrate=N/A speed=7.92x    frame=23720 fps=190 q=-0.0 size=N/A time=00:16:29.32 bitrate=N/A speed=7.93x    frame=23820 fps=190 q=-0.0 size=N/A time=00:16:33.49 bitrate=N/A speed=7.93x    frame=23926 fps=190 q=-0.0 size=N/A time=00:16:37.91 bitrate=N/A speed=7.93x    frame=24023 fps=190 q=-0.0 size=N/A time=00:16:41.95 bitrate=N/A speed=7.93x    frame=24129 fps=190 q=-0.0 size=N/A time=00:16:46.38 bitrate=N/A speed=7.93x    frame=24228 fps=190 q=-0.0 size=N/A time=00:16:50.50 bitrate=N/A speed=7.93x    frame=24330 fps=190 q=-0.0 size=N/A time=00:16:54.76 bitrate=N/A speed=7.93x    frame=24430 fps=190 q=-0.0 size=N/A time=00:16:58.93 bitrate=N/A speed=7.93x    frame=24524 fps=190 q=-0.0 size=N/A time=00:17:02.85 bitrate=N/A speed=7.93x    frame=24630 fps=190 q=-0.0 size=N/A time=00:17:07.27 bitrate=N/A speed=7.93x    frame=24730 fps=190 q=-0.0 size=N/A time=00:17:11.44 bitrate=N/A speed=7.94x    frame=24832 fps=190 q=-0.0 size=N/A time=00:17:15.70 bitrate=N/A speed=7.94x    frame=24930 fps=190 q=-0.0 size=N/A time=00:17:19.78 bitrate=N/A speed=7.94x    frame=25033 fps=190 q=-0.0 size=N/A time=00:17:24.08 bitrate=N/A speed=7.94x    frame=25129 fps=190 q=-0.0 size=N/A time=00:17:28.08 bitrate=N/A speed=7.94x    frame=25234 fps=190 q=-0.0 size=N/A time=00:17:32.46 bitrate=N/A speed=7.94x    frame=25341 fps=190 q=-0.0 size=N/A time=00:17:36.93 bitrate=N/A speed=7.94x    frame=25448 fps=190 q=-0.0 size=N/A time=00:17:41.39 bitrate=N/A speed=7.94x    frame=25549 fps=190 q=-0.0 size=N/A time=00:17:45.60 bitrate=N/A speed=7.94x    frame=25649 fps=190 q=-0.0 size=N/A time=00:17:49.77 bitrate=N/A speed=7.94x    frame=25749 fps=190 q=-0.0 size=N/A time=00:17:53.94 bitrate=N/A speed=7.94x    frame=25842 fps=190 q=-0.0 size=N/A time=00:17:57.82 bitrate=N/A speed=7.94x    frame=25942 fps=190 q=-0.0 size=N/A time=00:18:01.99 bitrate=N/A speed=7.94x    frame=26053 fps=191 q=-0.0 size=N/A time=00:18:06.62 bitrate=N/A speed=7.95x    frame=26154 fps=191 q=-0.0 size=N/A time=00:18:10.83 bitrate=N/A speed=7.95x    frame=26252 fps=191 q=-0.0 size=N/A time=00:18:14.92 bitrate=N/A speed=7.95x    frame=26342 fps=191 q=-0.0 size=N/A time=00:18:18.68 bitrate=N/A speed=7.95x    frame=26450 fps=191 q=-0.0 size=N/A time=00:18:23.18 bitrate=N/A speed=7.95x    frame=26547 fps=191 q=-0.0 size=N/A time=00:18:27.23 bitrate=N/A speed=7.95x    frame=26647 fps=191 q=-0.0 size=N/A time=00:18:31.40 bitrate=N/A speed=7.95x    frame=26736 fps=191 q=-0.0 size=N/A time=00:18:35.11 bitrate=N/A speed=7.95x    frame=26839 fps=191 q=-0.0 size=N/A time=00:18:39.40 bitrate=N/A speed=7.95x    frame=26935 fps=191 q=-0.0 size=N/A time=00:18:43.41 bitrate=N/A speed=7.95x    frame=27038 fps=191 q=-0.0 size=N/A time=00:18:47.70 bitrate=N/A speed=7.95x    frame=27140 fps=191 q=-0.0 size=N/A time=00:18:51.96 bitrate=N/A speed=7.95x    frame=27238 fps=191 q=-0.0 size=N/A time=00:18:56.05 bitrate=N/A speed=7.95x    frame=27334 fps=191 q=-0.0 size=N/A time=00:19:00.05 bitrate=N/A speed=7.95x    frame=27431 fps=191 q=-0.0 size=N/A time=00:19:04.10 bitrate=N/A speed=7.95x    frame=27536 fps=191 q=-0.0 size=N/A time=00:19:08.48 bitrate=N/A speed=7.95x    frame=27647 fps=191 q=-0.0 size=N/A time=00:19:13.11 bitrate=N/A speed=7.95x    frame=27748 fps=191 q=-0.0 size=N/A time=00:19:17.32 bitrate=N/A speed=7.95x    frame=27847 fps=191 q=-0.0 size=N/A time=00:19:21.45 bitrate=N/A speed=7.95x    frame=27953 fps=191 q=-0.0 size=N/A time=00:19:25.87 bitrate=N/A speed=7.96x    frame=28049 fps=191 q=-0.0 size=N/A time=00:19:29.87 bitrate=N/A speed=7.96x    frame=28154 fps=191 q=-0.0 size=N/A time=00:19:34.25 bitrate=N/A speed=7.96x    frame=28249 fps=191 q=-0.0 size=N/A time=00:19:38.21 bitrate=N/A speed=7.96x    frame=28354 fps=191 q=-0.0 size=N/A time=00:19:42.59 bitrate=N/A speed=7.96x    frame=28447 fps=191 q=-0.0 size=N/A time=00:19:46.47 bitrate=N/A speed=7.96x    frame=28555 fps=191 q=-0.0 size=N/A time=00:19:50.98 bitrate=N/A speed=7.96x    frame=28660 fps=191 q=-0.0 size=N/A time=00:19:55.36 bitrate=N/A speed=7.96x    frame=28767 fps=191 q=-0.0 size=N/A time=00:19:59.82 bitrate=N/A speed=7.96x    frame=28871 fps=191 q=-0.0 size=N/A time=00:20:04.16 bitrate=N/A speed=7.96x    frame=28963 fps=191 q=-0.0 size=N/A time=00:20:07.99 bitrate=N/A speed=7.96x    frame=29071 fps=191 q=-0.0 size=N/A time=00:20:12.50 bitrate=N/A speed=7.97x    frame=29176 fps=191 q=-0.0 size=N/A time=00:20:16.88 bitrate=N/A speed=7.97x    frame=29273 fps=191 q=-0.0 size=N/A time=00:20:20.92 bitrate=N/A speed=7.97x    frame=29375 fps=191 q=-0.0 size=N/A time=00:20:25.18 bitrate=N/A speed=7.97x    frame=29473 fps=191 q=-0.0 size=N/A time=00:20:29.26 bitrate=N/A speed=7.97x    frame=29571 fps=191 q=-0.0 size=N/A time=00:20:33.35 bitrate=N/A speed=7.97x    frame=29675 fps=191 q=-0.0 size=N/A time=00:20:37.69 bitrate=N/A speed=7.97x    frame=29777 fps=191 q=-0.0 size=N/A time=00:20:41.94 bitrate=N/A speed=7.97x    frame=29875 fps=191 q=-0.0 size=N/A time=00:20:46.03 bitrate=N/A speed=7.97x    frame=29981 fps=191 q=-0.0 size=N/A time=00:20:50.45 bitrate=N/A speed=7.97x    frame=30082 fps=191 q=-0.0 size=N/A time=00:20:54.67 bitrate=N/A speed=7.97x    frame=30186 fps=191 q=-0.0 size=N/A time=00:20:59.00 bitrate=N/A speed=7.97x    frame=30286 fps=191 q=-0.0 size=N/A time=00:21:03.17 bitrate=N/A speed=7.97x    frame=30388 fps=191 q=-0.0 size=N/A time=00:21:07.43 bitrate=N/A speed=7.98x    frame=30482 fps=191 q=-0.0 size=N/A time=00:21:11.35 bitrate=N/A speed=7.97x    frame=30594 fps=191 q=-0.0 size=N/A time=00:21:16.02 bitrate=N/A speed=7.98x    frame=30696 fps=191 q=-0.0 size=N/A time=00:21:20.27 bitrate=N/A speed=7.98x    frame=30799 fps=191 q=-0.0 size=N/A time=00:21:24.57 bitrate=N/A speed=7.98x    frame=30898 fps=191 q=-0.0 size=N/A time=00:21:28.70 bitrate=N/A speed=7.98x    frame=30991 fps=191 q=-0.0 size=N/A time=00:21:32.58 bitrate=N/A speed=7.98x    frame=31091 fps=191 q=-0.0 size=N/A time=00:21:36.75 bitrate=N/A speed=7.98x    frame=31186 fps=191 q=-0.0 size=N/A time=00:21:40.71 bitrate=N/A speed=7.98x    frame=31292 fps=191 q=-0.0 size=N/A time=00:21:45.13 bitrate=N/A speed=7.98x    frame=31395 fps=191 q=-0.0 size=N/A time=00:21:49.43 bitrate=N/A speed=7.98x    frame=31493 fps=191 q=-0.0 size=N/A time=00:21:53.52 bitrate=N/A speed=7.98x    frame=31597 fps=191 q=-0.0 size=N/A time=00:21:57.85 bitrate=N/A speed=7.98x    frame=31699 fps=191 q=-0.0 size=N/A time=00:22:02.11 bitrate=N/A speed=7.98x    frame=31803 fps=191 q=-0.0 size=N/A time=00:22:06.45 bitrate=N/A speed=7.98x    frame=31903 fps=191 q=-0.0 size=N/A time=00:22:10.62 bitrate=N/A speed=7.98x    frame=31997 fps=191 q=-0.0 size=N/A time=00:22:14.54 bitrate=N/A speed=7.98x    frame=32098 fps=191 q=-0.0 size=N/A time=00:22:18.75 bitrate=N/A speed=7.98x    frame=32199 fps=191 q=-0.0 size=N/A time=00:22:22.96 bitrate=N/A speed=7.98x    frame=32296 fps=191 q=-0.0 size=N/A time=00:22:27.01 bitrate=N/A speed=7.98x    frame=32394 fps=191 q=-0.0 size=N/A time=00:22:31.09 bitrate=N/A speed=7.98x    frame=32499 fps=191 q=-0.0 size=N/A time=00:22:35.47 bitrate=N/A speed=7.98x    frame=32595 fps=191 q=-0.0 size=N/A time=00:22:39.48 bitrate=N/A speed=7.98x    frame=32695 fps=191 q=-0.0 size=N/A time=00:22:43.65 bitrate=N/A speed=7.98x    frame=32803 fps=191 q=-0.0 size=N/A time=00:22:48.15 bitrate=N/A speed=7.99x    frame=32901 fps=191 q=-0.0 size=N/A time=00:22:52.24 bitrate=N/A speed=7.99x    frame=33001 fps=191 q=-0.0 size=N/A time=00:22:56.41 bitrate=N/A speed=7.99x    frame=33099 fps=191 q=-0.0 size=N/A time=00:23:00.50 bitrate=N/A speed=7.99x    frame=33200 fps=192 q=-0.0 size=N/A time=00:23:04.71 bitrate=N/A speed=7.99x    frame=33297 fps=191 q=-0.0 size=N/A time=00:23:08.76 bitrate=N/A speed=7.99x    frame=33401 fps=192 q=-0.0 size=N/A time=00:23:13.10 bitrate=N/A speed=7.99x    frame=33504 fps=192 q=-0.0 size=N/A time=00:23:17.39 bitrate=N/A speed=7.99x    frame=33602 fps=192 q=-0.0 size=N/A time=00:23:21.48 bitrate=N/A speed=7.99x    frame=33691 fps=191 q=-0.0 size=N/A time=00:23:25.19 bitrate=N/A speed=7.99x    frame=33805 fps=192 q=-0.0 size=N/A time=00:23:29.95 bitrate=N/A speed=7.99x    frame=33907 fps=192 q=-0.0 size=N/A time=00:23:34.20 bitrate=N/A speed=7.99x    frame=34000 fps=192 q=-0.0 size=N/A time=00:23:38.08 bitrate=N/A speed=7.99x    [Parsed_psnr_10 @ 000002d9ab76e580] PSNR y:45.475970 u:51.074848 v:50.450814 average:46.635990 min:36.341288 max:inf
[out#0/null @ 000002d9a480ed40] video:14629KiB audio:266252KiB subtitle:0KiB other streams:0KiB global headers:0KiB muxing overhead: unknown
frame=34045 fps=192 q=-0.0 Lsize=N/A time=00:23:39.96 bitrate=N/A speed=7.99x    
